<svg width="592" height="296" viewBox="0 0 592 296" fill="none" xmlns="http://www.w3.org/2000/svg">
<path d="M64.7591 14.4405C70.0393 14.1553 75.2501 14.6409 80.3916 15.8896C85.5484 17.1461 89.3949 18.4488 91.9232 19.8055L95.6232 21.9946L87.6066 40.2788C86.8666 39.8471 85.8336 39.2921 84.5232 38.6138C83.2282 37.9355 80.8001 37.0644 77.2466 35.993C73.7084 34.9061 70.4324 34.4436 67.4107 34.6055C63.7107 34.8136 60.8895 35.7694 58.9624 37.473C57.0276 39.1611 56.1334 41.3503 56.2799 44.0405C56.357 45.3817 56.9043 46.5919 57.9141 47.6788C58.9393 48.7734 60.6351 49.9142 63.0016 51.1013C65.3603 52.273 67.4416 53.2134 69.2299 53.9071C71.0182 54.5855 73.7624 55.6184 77.4624 56.9905C83.9374 59.3338 89.5259 62.6946 94.2357 67.073C98.9609 71.4513 101.489 76.5696 101.821 82.428C102.129 88.0242 101.389 92.9652 99.6007 97.2588C97.8278 101.56 95.2532 104.99 91.8616 107.557C88.4853 110.132 84.7082 112.113 80.5149 113.508C76.3216 114.888 71.7274 115.72 66.7324 116.005C62.4543 116.237 58.2378 116.029 54.0907 115.389C49.9359 114.734 46.4286 113.832 43.5766 112.675C40.7399 111.527 38.1884 110.386 35.9299 109.253C33.6636 108.104 31.9909 107.118 30.9041 106.293L29.3007 105.121L39.3524 85.7888C40.3545 86.4902 41.7266 87.4152 43.4532 88.5638C45.1799 89.6969 48.2093 91.1769 52.5491 93.0038C56.8811 94.8152 60.6736 95.64 63.9266 95.4705C73.3153 94.9386 77.8401 91.4621 77.4932 85.0488C77.4084 83.7384 76.9999 82.5205 76.2599 81.4105C75.5353 80.3005 74.2943 79.2213 72.5291 78.173C70.7561 77.1092 69.2068 76.2767 67.8732 75.6755C66.532 75.0819 64.3428 74.18 61.3057 72.9621C58.2609 71.7288 56.0024 70.7961 54.5224 70.1563C48.4328 67.5663 43.6536 64.1746 40.1849 59.9813C36.7084 55.788 34.8276 51.163 34.5424 46.1063C34.0491 37.3342 36.8857 29.9728 43.0524 24.0296C49.2191 18.0942 56.4495 14.8953 64.7591 14.4405Z" fill="white"/>
<path d="M140.774 12.7302L144.628 110.564L122.336 111.459L118.481 13.6244L140.774 12.7302Z" fill="white"/>
<path d="M258.8 107.648L229.971 108.264L206.137 75.3961L183.69 109.282L156.033 109.868L191.923 56.3719L160.103 11.8486L186.712 11.2628L205.305 37.5636L222.756 10.4919L250.537 9.9061L219.488 55.7861L258.8 107.648Z" fill="white"/>
<path d="M326.764 9.90913V29.4883L292.478 29.4575V48.9133L324.174 48.9441L324.144 68.5541L292.447 68.5233V107.805H270.124L270.154 9.8783L326.764 9.90913Z" fill="white"/>
<path d="M403.623 11.2059L403.253 30.7542L369.553 30.1067L369.183 49.5625L401.465 50.1792L401.095 69.7892L368.813 69.1725L368.443 88.875L402.143 89.5225L401.773 109.102L345.749 108.023L347.599 10.1267L403.623 11.2059Z" fill="white"/>
<path d="M482.59 13.9494L481.85 33.5285L448.149 32.2644L447.409 51.6894L479.692 52.9227L478.952 72.5327L446.669 71.2994L445.929 90.971L479.63 92.2352L478.89 111.814L422.897 109.718L426.597 11.8527L482.59 13.9494Z" fill="white"/>
<path d="M498.268 34.2625L499.378 14.7142L568.106 18.63L566.996 38.1784L543.778 36.8525L539.338 115.077L517.046 113.813L521.486 35.5884L498.268 34.2625Z" fill="white"/>
<path d="M60.31 216.504C63.1775 217.044 66.045 217.136 68.9125 216.781C71.78 216.411 73.9306 215.949 75.349 215.386L77.4765 214.446L82.4792 231.967C82.1786 232.113 81.7623 232.314 81.2227 232.568C80.6909 232.799 79.4883 233.216 77.6229 233.809C75.7575 234.387 73.7996 234.827 71.7338 235.135C69.6679 235.436 67.0163 235.551 63.7711 235.482C60.5413 235.428 57.2575 235.089 53.9121 234.457C46.2346 233.015 39.3202 229.762 33.1458 224.698C26.9792 219.641 22.4158 213.413 19.4558 206.028C16.4958 198.621 15.7404 191.074 17.1896 183.404C18.2842 177.585 20.5581 172.243 24.0269 167.379C27.511 162.499 31.6658 158.545 36.4835 155.523C41.309 152.486 46.674 150.351 52.5708 149.11C58.4754 147.861 64.2952 147.776 70.0379 148.856C75.3798 149.865 80.1821 151.43 84.4371 153.542C88.7152 155.67 91.6598 157.535 93.2786 159.162L95.7298 161.598L84.6992 176.097C84.3215 175.604 83.7048 174.987 82.8646 174.255C82.0475 173.515 80.3209 172.412 77.6923 170.955C75.0715 169.483 72.3196 168.473 69.4521 167.934C64.9042 167.078 60.6954 167.047 56.8181 167.834C52.9408 168.62 49.7265 170.023 47.1673 172.042C44.6158 174.039 42.5192 176.32 40.8927 178.88C39.2817 181.446 38.2025 184.16 37.6629 187.027C36.4835 193.302 37.7708 199.376 41.5248 205.242C45.2942 211.1 51.5533 214.854 60.31 216.504Z" stroke="url(#paint0_linear_17_2)" stroke-width="2.58183"/>
<path d="M108.14 157.034L137.956 160.757C145.98 161.759 152.255 164.719 156.772 169.63C161.289 174.532 163.054 180.961 162.06 188.908C161.289 195.052 159.108 200 155.516 203.762C151.939 207.524 147.422 209.913 141.957 210.939L166.354 249.002L142.196 245.988L120.836 209.852L116.72 242.805L97.7185 240.431L108.14 157.034ZM122.516 196.401L124.744 196.678C126.486 196.902 127.974 197.048 129.199 197.141C130.425 197.225 131.836 197.164 133.431 196.963C135.027 196.748 136.337 196.324 137.37 195.699C138.419 195.067 139.367 194.08 140.222 192.747C141.07 191.421 141.625 189.748 141.872 187.744C142.126 185.717 142.003 183.959 141.51 182.456C141.009 180.961 140.33 179.781 139.467 178.918C138.627 178.062 137.455 177.33 135.96 176.729C134.464 176.12 133.107 175.711 131.897 175.496C130.695 175.272 129.215 175.056 127.473 174.84L125.253 174.563L122.516 196.401Z" stroke="url(#paint1_linear_17_2)" stroke-width="2.58183"/>
<path d="M232.915 169.29L231.759 186.064L202.899 184.067L201.75 200.717L229.392 202.629L228.228 219.402L200.586 217.491L199.422 234.364L228.275 236.361L227.118 253.134L179.149 249.819L184.954 165.976L232.915 169.29Z" stroke="url(#paint2_linear_17_2)" stroke-width="2.58183"/>
<path d="M290.835 170.647L323.819 255.069L303.246 254.837L297.218 237.956L265.236 237.594L258.83 254.336L238.234 254.105L273.099 170.447L290.835 170.647ZM290.889 221.067L281.786 196.516L281.593 196.516L271.942 220.859L290.889 221.067Z" stroke="url(#paint3_linear_17_2)" stroke-width="2.58183"/>
<path d="M327.728 187.397L326.934 170.601L385.941 167.818L386.735 184.607L366.809 185.547L369.985 252.71L350.853 253.612L347.677 186.457L327.728 187.397Z" stroke="url(#paint4_linear_17_2)" stroke-width="2.58183"/>
<path d="M398.105 166.593L417.183 164.92L424.521 248.64L405.443 250.313L398.105 166.593Z" stroke="url(#paint5_linear_17_2)" stroke-width="2.58183"/>
<path d="M471.58 243.337L425.33 164.804L446.744 161.898L475.172 213.76L488.747 156.194L510.138 153.288L486.519 241.309L471.58 243.337Z" stroke="url(#paint6_linear_17_2)" stroke-width="2.58183"/>
<path d="M564.651 142.304L567.873 158.799L539.475 164.342L542.674 180.722L569.869 175.419L573.091 191.922L545.896 197.225L549.134 213.829L577.524 208.287L580.746 224.79L533.563 234.002L517.46 151.507L564.651 142.304Z" stroke="url(#paint7_linear_17_2)" stroke-width="2.58183"/>
<defs>
<linearGradient id="paint0_linear_17_2" x1="61.2264" y1="147.196" x2="45.1049" y2="232.798" gradientUnits="userSpaceOnUse">
<stop stop-color="#FFFBFB"/>
<stop offset="1" stop-color="white" stop-opacity="0.49"/>
</linearGradient>
<linearGradient id="paint1_linear_17_2" x1="142.456" y1="161.32" x2="132.036" y2="244.719" gradientUnits="userSpaceOnUse">
<stop stop-color="#FFFBFB"/>
<stop offset="1" stop-color="white" stop-opacity="0.49"/>
</linearGradient>
<linearGradient id="paint2_linear_17_2" x1="208.934" y1="167.632" x2="203.134" y2="251.479" gradientUnits="userSpaceOnUse">
<stop stop-color="#FFFBFB"/>
<stop offset="1" stop-color="white" stop-opacity="0.49"/>
</linearGradient>
<linearGradient id="paint3_linear_17_2" x1="281.971" y1="170.546" x2="281.027" y2="254.588" gradientUnits="userSpaceOnUse">
<stop stop-color="#FFFBFB"/>
<stop offset="1" stop-color="white" stop-opacity="0.49"/>
</linearGradient>
<linearGradient id="paint4_linear_17_2" x1="356.437" y1="169.207" x2="360.404" y2="253.163" gradientUnits="userSpaceOnUse">
<stop stop-color="#FFFBFB"/>
<stop offset="1" stop-color="white" stop-opacity="0.49"/>
</linearGradient>
<linearGradient id="paint5_linear_17_2" x1="407.642" y1="165.756" x2="414.984" y2="249.476" gradientUnits="userSpaceOnUse">
<stop stop-color="#FFFBFB"/>
<stop offset="1" stop-color="white" stop-opacity="0.49"/>
</linearGradient>
<linearGradient id="paint6_linear_17_2" x1="467.734" y1="159.044" x2="479.039" y2="242.325" gradientUnits="userSpaceOnUse">
<stop stop-color="#FFFBFB"/>
<stop offset="1" stop-color="white" stop-opacity="0.49"/>
</linearGradient>
<linearGradient id="paint7_linear_17_2" x1="541.056" y1="146.902" x2="557.158" y2="229.397" gradientUnits="userSpaceOnUse">
<stop stop-color="#FFFBFB"/>
<stop offset="1" stop-color="white" stop-opacity="0.49"/>
</linearGradient>
</defs>
</svg>
